<svg width="26" height="26" viewBox="0 0 26 26" fill="none" xmlns="http://www.w3.org/2000/svg">
<rect width="26" height="26" rx="12" fill="#1C64F2"/>
<path d="M0 13H26V14C26 20.6274 20.6274 26 14 26H12C5.37258 26 0 20.6274 0 14V13Z" fill="#1A56DB"/>
<circle cx="7.8" cy="8.23359" r="1.3" fill="white"/>
<rect x="10.3999" y="6.93359" width="9.53333" height="2.6" rx="1.3" fill="white"/>
<path d="M6.5 13.0002C6.5 12.2822 7.08203 11.7002 7.8 11.7002H18.6333C19.3513 11.7002 19.9333 12.2822 19.9333 13.0002C19.9333 13.7182 19.3513 14.3002 18.6333 14.3002H7.8C7.08203 14.3002 6.5 13.7182 6.5 13.0002Z" fill="white"/>
<path d="M6.5 13.5775C6.5 13.0191 6.95269 12.5664 7.51111 12.5664C8.62795 12.5664 9.53333 13.4718 9.53333 14.5886V16.1775C9.53333 17.2944 8.62795 18.1997 7.51111 18.1997C6.95269 18.1997 6.5 17.747 6.5 17.1886V13.5775Z" fill="white"/>
<path d="M6.5 17.7668C6.5 17.0488 7.08203 16.4668 7.8 16.4668H18.6333C19.3513 16.4668 19.9333 17.0488 19.9333 17.7668C19.9333 18.4848 19.3513 19.0668 18.6333 19.0668H7.8C7.08203 19.0668 6.5 18.4848 6.5 17.7668Z" fill="white"/>
<path d="M8.6665 15.3831C8.6665 14.7848 9.15153 14.2998 9.74984 14.2998H21.0165C21.6148 14.2998 22.0998 14.7848 22.0998 15.3831C22.0998 15.9814 21.6148 16.4665 21.0165 16.4665H9.74984C9.15153 16.4665 8.6665 15.9814 8.6665 15.3831Z" fill="#1A56DB"/>
</svg>
