<svg width="16" height="16" viewBox="0 0 16 16" fill="none" xmlns="http://www.w3.org/2000/svg">
<rect width="16" height="16" rx="4" fill="#1C64F2"/>
<rect y="8" width="16" height="8" rx="4" fill="#1A56DB"/>
<circle cx="4.8" cy="5.06666" r="0.8" fill="white"/>
<rect x="6.39999" y="4.26666" width="5.86667" height="1.6" rx="0.8" fill="white"/>
<path d="M4 8.00001C4 7.55818 4.35817 7.20001 4.8 7.20001H11.4667C11.9085 7.20001 12.2667 7.55818 12.2667 8.00001C12.2667 8.44184 11.9085 8.80001 11.4667 8.80001H4.8C4.35817 8.80001 4 8.44184 4 8.00001Z" fill="white"/>
<path d="M4 8.35556C4 8.01192 4.27858 7.73334 4.62222 7.73334C5.30951 7.73334 5.86667 8.29049 5.86667 8.97778V9.95556C5.86667 10.6428 5.30951 11.2 4.62222 11.2C4.27858 11.2 4 10.9214 4 10.5778V8.35556Z" fill="white"/>
<path d="M4 10.9333C4 10.4915 4.35817 10.1333 4.8 10.1333H11.4667C11.9085 10.1333 12.2667 10.4915 12.2667 10.9333C12.2667 11.3752 11.9085 11.7333 11.4667 11.7333H4.8C4.35817 11.7333 4 11.3752 4 10.9333Z" fill="white"/>
<path d="M5.33334 9.46665C5.33334 9.09846 5.63182 8.79999 6.00001 8.79999H12.9333C13.3015 8.79999 13.6 9.09846 13.6 9.46665C13.6 9.83484 13.3015 10.1333 12.9333 10.1333H6.00001C5.63182 10.1333 5.33334 9.83484 5.33334 9.46665Z" fill="#1A56DB"/>
</svg>
